<svg xmlns="http://www.w3.org/2000/svg" xmlns:xlink="http://www.w3.org/1999/xlink" width="500" zoomAndPan="magnify" viewBox="0 0 375 374.999991" height="500" preserveAspectRatio="xMidYMid meet" version="1.0"><defs><clipPath id="b747577083"><path d="M 69.332031 69.332031 L 305.582031 69.332031 L 305.582031 305.582031 L 69.332031 305.582031 Z M 69.332031 69.332031 " clip-rule="nonzero"/></clipPath></defs><g clip-path="url(#b747577083)"><path fill="#ffffff" d="M 297.054688 205.980469 C 301.691406 205.980469 305.488281 202.1875 305.488281 197.550781 L 305.488281 177.164062 C 305.488281 172.527344 301.691406 168.734375 297.054688 168.734375 L 288.300781 168.734375 C 283.664062 168.734375 278.757812 165.105469 277.394531 160.675781 L 269.925781 142.539062 C 267.730469 138.453125 268.621094 132.429688 271.898438 129.152344 L 278.09375 122.957031 C 281.371094 119.675781 281.371094 114.3125 278.09375 111.035156 L 263.679688 96.621094 C 260.402344 93.339844 255.035156 93.339844 251.757812 96.621094 L 245.558594 102.816406 C 242.28125 106.097656 236.253906 106.980469 232.171875 104.785156 L 214.035156 97.320312 C 209.605469 95.957031 205.980469 91.046875 205.980469 86.410156 L 205.980469 77.65625 C 205.980469 73.019531 202.1875 69.226562 197.550781 69.226562 L 177.164062 69.226562 C 172.527344 69.226562 168.734375 73.019531 168.734375 77.65625 L 168.734375 86.410156 C 168.734375 91.046875 165.105469 95.957031 160.675781 97.320312 L 142.542969 104.785156 C 138.457031 106.980469 132.433594 106.09375 129.15625 102.8125 L 122.960938 96.617188 C 119.679688 93.339844 114.316406 93.339844 111.035156 96.617188 L 96.625 111.03125 C 93.34375 114.308594 93.34375 119.675781 96.625 122.953125 L 102.824219 129.152344 C 106.101562 132.429688 106.988281 138.453125 104.796875 142.539062 L 97.324219 160.675781 C 95.964844 165.105469 91.054688 168.730469 86.417969 168.730469 L 77.667969 168.730469 C 73.03125 168.730469 69.234375 172.523438 69.234375 177.160156 L 69.234375 197.550781 C 69.234375 202.1875 73.03125 205.980469 77.667969 205.980469 L 86.417969 205.980469 C 91.054688 205.980469 95.964844 209.605469 97.324219 214.035156 L 104.796875 232.171875 C 106.992188 236.257812 106.105469 242.285156 102.824219 245.558594 L 96.625 251.757812 C 93.347656 255.035156 93.347656 260.402344 96.625 263.679688 L 111.035156 278.09375 C 114.316406 281.371094 119.679688 281.371094 122.960938 278.09375 L 129.160156 271.894531 C 132.4375 268.617188 138.464844 267.730469 142.546875 269.925781 L 160.679688 277.394531 C 165.113281 278.757812 168.738281 283.664062 168.738281 288.300781 L 168.738281 297.054688 C 168.738281 301.691406 172.53125 305.488281 177.167969 305.488281 L 197.550781 305.488281 C 202.1875 305.488281 205.984375 301.691406 205.984375 297.054688 L 205.984375 288.300781 C 205.984375 283.664062 209.609375 278.757812 214.039062 277.390625 L 232.171875 269.925781 C 236.257812 267.730469 242.285156 268.613281 245.558594 271.894531 L 251.761719 278.09375 C 255.039062 281.371094 260.40625 281.371094 263.683594 278.09375 L 278.097656 263.679688 C 281.371094 260.402344 281.375 255.035156 278.097656 251.757812 L 271.898438 245.558594 C 268.621094 242.28125 267.734375 236.253906 269.925781 232.171875 L 277.394531 214.035156 C 278.757812 209.605469 283.664062 205.980469 288.304688 205.980469 Z M 187.355469 235.957031 C 160.515625 235.957031 138.757812 214.195312 138.757812 187.355469 C 138.757812 160.515625 160.515625 138.753906 187.355469 138.753906 C 214.195312 138.753906 235.957031 160.515625 235.957031 187.355469 C 235.957031 214.195312 214.195312 235.957031 187.355469 235.957031 Z M 187.355469 235.957031 " fill-opacity="1" fill-rule="nonzero"/></g></svg>