<svg xmlns="http://www.w3.org/2000/svg" xmlns:xlink="http://www.w3.org/1999/xlink" width="500" zoomAndPan="magnify" viewBox="0 0 375 374.999991" height="500" preserveAspectRatio="xMidYMid meet" version="1.0"><defs><clipPath id="83e1fb21dd"><path d="M 77.6875 54.933594 L 318.953125 54.933594 L 318.953125 297 L 77.6875 297 Z M 77.6875 54.933594 " clip-rule="nonzero"/></clipPath><clipPath id="bcc1e1f33a"><path d="M 92.292969 272.480469 L 140.722656 272.480469 L 140.722656 320.027344 L 92.292969 320.027344 Z M 92.292969 272.480469 " clip-rule="nonzero"/></clipPath></defs><g clip-path="url(#83e1fb21dd)"><path fill="#ffffff" d="M 197.082031 229.046875 C 207.636719 223.644531 218.882812 216.851562 230.167969 209.128906 C 234.648438 233.765625 227.722656 260.085938 209.34375 279.480469 C 209.113281 261.816406 204.878906 244.609375 197.082031 229.046875 Z M 156.53125 238.113281 C 146.980469 247.667969 131.886719 249.621094 124.246094 249.96875 C 124.578125 242.34375 126.511719 227.289062 136.113281 217.691406 C 140.386719 213.414062 144.859375 210.027344 149.128906 207.542969 L 166.679688 225.09375 C 164.195312 229.367188 160.808594 233.835938 156.53125 238.113281 Z M 94.742188 164.878906 C 114.136719 146.5 140.460938 139.574219 165.09375 144.054688 C 157.371094 155.34375 150.578125 166.585938 145.179688 177.140625 C 129.613281 169.34375 112.410156 165.109375 94.742188 164.878906 Z M 307.316406 66.917969 C 308.824219 73.667969 311.746094 92.667969 303.957031 115.410156 L 258.816406 70.269531 C 281.46875 62.53125 300.558594 65.4375 307.316406 66.917969 Z M 182.945312 224.578125 C 182.375 224.832031 181.804688 225.085938 181.246094 225.328125 L 148.894531 192.976562 C 149.136719 192.417969 149.390625 191.847656 149.644531 191.277344 C 150.96875 188.289062 152.429688 185.214844 154.027344 182.074219 C 159.742188 170.84375 167.121094 158.765625 175.570312 146.691406 C 177.582031 143.820312 179.648438 140.949219 181.765625 138.089844 C 192.492188 123.636719 204.546875 109.488281 216.898438 97.140625 C 226.632812 87.402344 237.292969 79.769531 248.625 74.410156 L 299.8125 125.597656 C 294.453125 136.929688 286.820312 147.589844 277.085938 157.328125 C 264.734375 169.675781 250.585938 181.734375 236.136719 192.460938 C 233.277344 194.578125 230.40625 196.644531 227.535156 198.652344 C 215.457031 207.101562 203.378906 214.484375 192.148438 220.195312 C 189.007812 221.792969 185.933594 223.257812 182.945312 224.578125 Z M 239.199219 202.75 C 255.109375 191.179688 270.742188 177.996094 284.25 164.492188 C 295.785156 152.957031 304.621094 140.175781 310.523438 126.5 C 325.640625 91.46875 316.691406 62.425781 316.304688 61.207031 C 315.808594 59.644531 314.582031 58.417969 313.015625 57.921875 C 311.796875 57.53125 282.753906 48.585938 247.722656 63.699219 C 234.046875 69.601562 221.265625 78.441406 209.734375 89.976562 C 196.226562 103.480469 183.046875 119.113281 171.476562 135.023438 C 141.734375 128.039062 109.140625 136.109375 85.996094 159.253906 C 83.5625 161.691406 81.171875 164.390625 78.890625 167.273438 C 77.632812 168.867188 77.445312 171.050781 78.410156 172.832031 C 79.378906 174.609375 81.3125 175.648438 83.332031 175.460938 C 103.414062 173.601562 123.242188 177.460938 140.777344 186.277344 C 139.859375 188.3125 139.003906 190.3125 138.214844 192.269531 C 137.457031 194.15625 137.894531 196.308594 139.332031 197.742188 L 141.722656 200.132812 C 137.40625 202.910156 133.089844 206.382812 128.945312 210.527344 C 112.519531 226.953125 114.039062 254.21875 114.113281 255.371094 C 114.191406 256.648438 114.738281 257.792969 115.585938 258.636719 C 116.433594 259.484375 117.578125 260.035156 118.851562 260.109375 C 120.003906 260.183594 147.273438 261.703125 163.699219 245.277344 C 167.839844 241.136719 171.316406 236.816406 174.089844 232.503906 L 176.480469 234.890625 C 177.914062 236.328125 180.070312 236.769531 181.953125 236.007812 C 183.910156 235.222656 185.910156 234.363281 187.945312 233.445312 C 196.765625 250.980469 200.621094 270.808594 198.765625 290.894531 C 198.621094 292.417969 199.175781 293.894531 200.226562 294.941406 C 200.5625 295.28125 200.957031 295.578125 201.394531 295.8125 C 203.171875 296.777344 205.359375 296.59375 206.949219 295.332031 C 209.832031 293.054688 212.53125 290.660156 214.96875 288.226562 C 238.113281 265.082031 246.1875 232.492188 239.199219 202.75 " fill-opacity="1" fill-rule="nonzero"/></g><path fill="#ffffff" d="M 226.449219 147.773438 C 220.394531 141.714844 220.394531 131.855469 226.449219 125.800781 C 232.511719 119.742188 242.367188 119.742188 248.425781 125.800781 C 254.480469 131.855469 254.480469 141.714844 248.425781 147.773438 C 242.367188 153.832031 232.511719 153.832031 226.449219 147.773438 Z M 255.589844 118.632812 C 245.582031 108.625 229.292969 108.625 219.285156 118.632812 C 209.277344 128.644531 209.277344 144.929688 219.285156 154.9375 C 229.292969 164.945312 245.582031 164.945312 255.589844 154.9375 C 265.597656 144.929688 265.597656 128.644531 255.589844 118.632812 " fill-opacity="1" fill-rule="nonzero"/><path fill="#ffffff" d="M 104.644531 269.578125 C 102.664062 267.601562 99.457031 267.601562 97.480469 269.578125 L 60.222656 306.835938 C 58.242188 308.816406 58.242188 312.023438 60.222656 314 C 62.199219 315.980469 65.40625 315.980469 67.386719 314 L 104.644531 276.742188 C 106.621094 274.765625 106.621094 271.558594 104.644531 269.578125 " fill-opacity="1" fill-rule="nonzero"/><path fill="#ffffff" d="M 117.539062 190.761719 C 115.566406 188.785156 112.355469 188.785156 110.375 190.761719 L 73.117188 228.019531 C 71.140625 230 71.140625 233.210938 73.117188 235.183594 C 75.097656 237.164062 78.304688 237.167969 80.28125 235.183594 L 117.539062 197.925781 C 119.519531 195.953125 119.519531 192.742188 117.539062 190.761719 " fill-opacity="1" fill-rule="nonzero"/><path fill="#ffffff" d="M 102.070312 237.390625 C 100.09375 235.410156 96.882812 235.410156 94.90625 237.390625 L 57.648438 274.648438 C 55.667969 276.625 55.667969 279.835938 57.648438 281.8125 C 59.625 283.792969 62.832031 283.792969 64.8125 281.8125 L 102.070312 244.554688 C 104.050781 242.574219 104.050781 239.367188 102.070312 237.390625 " fill-opacity="1" fill-rule="nonzero"/><path fill="#ffffff" d="M 185.425781 258.644531 C 183.445312 256.667969 180.238281 256.667969 178.257812 258.644531 L 141 295.902344 C 139.023438 297.882812 139.023438 301.09375 141 303.070312 C 142.980469 305.046875 146.1875 305.046875 148.164062 303.070312 L 185.425781 265.8125 C 187.402344 263.835938 187.402344 260.625 185.425781 258.644531 " fill-opacity="1" fill-rule="nonzero"/><g clip-path="url(#bcc1e1f33a)"><path fill="#ffffff" d="M 138.796875 274.117188 C 136.820312 272.136719 133.613281 272.136719 131.632812 274.117188 L 94.375 311.375 C 92.394531 313.351562 92.394531 316.5625 94.375 318.539062 C 96.351562 320.519531 99.5625 320.519531 101.542969 318.539062 L 138.796875 281.285156 C 140.777344 279.304688 140.777344 276.09375 138.796875 274.117188 " fill-opacity="1" fill-rule="nonzero"/></g></svg>